<svg width="18" height="14" viewBox="0 0 18 14" fill="none" xmlns="http://www.w3.org/2000/svg">
<path d="M0.9375 1.875C0.679167 1.875 0.458333 1.78333 0.275 1.6C0.0916667 1.41667 0 1.19583 0 0.9375C0 0.679167 0.0916667 0.458333 0.275 0.275C0.458333 0.0916667 0.679167 0 0.9375 0H16.6125C16.8708 0 17.0917 0.0916667 17.275 0.275C17.4583 0.458333 17.55 0.679167 17.55 0.9375C17.55 1.19583 17.4583 1.41667 17.275 1.6C17.0917 1.78333 16.8708 1.875 16.6125 1.875H0.9375ZM0.9375 13.875C0.679167 13.875 0.458333 13.7833 0.275 13.6C0.0916667 13.4167 0 13.1958 0 12.9375C0 12.6792 0.0916667 12.4583 0.275 12.275C0.458333 12.0917 0.679167 12 0.9375 12H16.6125C16.8708 12 17.0917 12.0917 17.275 12.275C17.4583 12.4583 17.55 12.6792 17.55 12.9375C17.55 13.1958 17.4583 13.4167 17.275 13.6C17.0917 13.7833 16.8708 13.875 16.6125 13.875H0.9375ZM0.9375 7.875C0.679167 7.875 0.458333 7.78333 0.275 7.6C0.0916667 7.41667 0 7.19583 0 6.9375C0 6.67917 0.0916667 6.45833 0.275 6.275C0.458333 6.09167 0.679167 6 0.9375 6H16.6125C16.8708 6 17.0917 6.09167 17.275 6.275C17.4583 6.45833 17.55 6.67917 17.55 6.9375C17.55 7.19583 17.4583 7.41667 17.275 7.6C17.0917 7.78333 16.8708 7.875 16.6125 7.875H0.9375Z" fill="white"/>
</svg>
