<svg width="20" height="20" viewBox="0 0 20 20" fill="none" xmlns="http://www.w3.org/2000/svg">
<path d="M0 8.05664C0 6.94987 0.208333 5.9082 0.625 4.93164C1.04167 3.95508 1.62109 3.09896 2.36328 2.36328C3.10547 1.62109 3.96159 1.04167 4.93164 0.625C5.9082 0.208333 6.95312 0 8.06641 0C9.17969 0 10.2214 0.208333 11.1914 0.625C12.168 1.04167 13.0273 1.62109 13.7695 2.36328C14.5117 3.09896 15.0911 3.95508 15.5078 4.93164C15.9245 5.9082 16.1328 6.94987 16.1328 8.05664C16.1328 8.88997 16.0091 9.68424 15.7617 10.4395C15.5208 11.1947 15.1823 11.888 14.7461 12.5195L18.9551 16.748C19.1113 16.9108 19.2285 17.0898 19.3066 17.2852C19.3913 17.487 19.4336 17.7018 19.4336 17.9297C19.4336 18.2422 19.362 18.5254 19.2188 18.7793C19.0755 19.0332 18.8802 19.2318 18.6328 19.375C18.3854 19.5247 18.099 19.5996 17.7734 19.5996C17.5521 19.5996 17.3372 19.5605 17.1289 19.4824C16.9206 19.4043 16.735 19.2839 16.5723 19.1211L12.3242 14.873C11.7122 15.2637 11.0449 15.5729 10.3223 15.8008C9.60612 16.0221 8.85417 16.1328 8.06641 16.1328C6.95312 16.1328 5.9082 15.9245 4.93164 15.5078C3.96159 15.0911 3.10547 14.5117 2.36328 13.7695C1.62109 13.0273 1.04167 12.168 0.625 11.1914C0.208333 10.2148 0 9.16992 0 8.05664ZM2.30469 8.05664C2.30469 8.85742 2.45117 9.60612 2.74414 10.3027C3.04362 10.9993 3.45703 11.6113 3.98438 12.1387C4.51823 12.666 5.13346 13.0794 5.83008 13.3789C6.52669 13.6784 7.27214 13.8281 8.06641 13.8281C8.86068 13.8281 9.60612 13.6784 10.3027 13.3789C10.9993 13.0794 11.6113 12.666 12.1387 12.1387C12.666 11.6113 13.0794 10.9993 13.3789 10.3027C13.6784 9.60612 13.8281 8.85742 13.8281 8.05664C13.8281 7.26237 13.6784 6.52018 13.3789 5.83008C13.0794 5.13346 12.666 4.52148 12.1387 3.99414C11.6113 3.46029 10.9993 3.04362 10.3027 2.74414C9.60612 2.44466 8.86068 2.29492 8.06641 2.29492C7.27214 2.29492 6.52669 2.44466 5.83008 2.74414C5.13346 3.04362 4.51823 3.46029 3.98438 3.99414C3.45703 4.52148 3.04362 5.13346 2.74414 5.83008C2.45117 6.52018 2.30469 7.26237 2.30469 8.05664Z" fill="white"/>
</svg>
